<svg xmlns="http://www.w3.org/2000/svg" viewBox="0 0 360 90" fill="none">
  <!-- Shield with Ghost Icon -->
  <g transform="translate(5, 0)">
    <!-- Shield Shape -->
    <path d="M35 4 L65 14 L65 42 C65 58 51 70 35 76 C19 70 5 58 5 42 L5 14 Z" 
          fill="none" 
          stroke="#D4AF37" 
          stroke-width="3.5"
          stroke-linejoin="round"/>
    
    <!-- Inner Shield Fill -->
    <path d="M35 9 L60 17 L60 41 C60 54 48 64 35 69 C22 64 10 54 10 41 L10 17 Z" 
          fill="#D4AF37" 
          opacity="0.15"/>
    
    <!-- Phantom/Ghost Figure -->
    <g transform="translate(35, 38)">
      <!-- Ghost Body -->
      <path d="M-13 -8 C-13 -17 -8 -22 0 -22 C8 -22 13 -17 13 -8 L13 12 
               L10 9 L10 14 L5 11 L5 16 L0 13 L-5 16 L-5 11 L-10 14 L-10 9 L-13 12 Z" 
            fill="#D4AF37"/>
      
      <!-- Eyes -->
      <ellipse cx="-5" cy="-10" rx="3" ry="3.5" fill="#0a0a0a"/>
      <ellipse cx="5" cy="-10" rx="3" ry="3.5" fill="#0a0a0a"/>
      
      <!-- Eye Glow -->
      <ellipse cx="-5" cy="-9" rx="1.5" ry="1.8" fill="#D4AF37" opacity="0.25"/>
      <ellipse cx="5" cy="-9" rx="1.5" ry="1.8" fill="#D4AF37" opacity="0.25"/>
    </g>
  </g>
  
  <!-- PhantomPrivacy Text -->
  <text x="82" y="48" font-family="system-ui, -apple-system, 'Segoe UI', Roboto, Arial, sans-serif" font-size="32" font-weight="700" fill="#D4AF37">
    PhantomPrivacy
  </text>
  
  <!-- Tagline -->
  <text x="82" y="70" font-family="system-ui, -apple-system, 'Segoe UI', Roboto, Arial, sans-serif" font-size="12" font-weight="500" fill="#B8860B" letter-spacing="1.5">
    Secure Your Digital Self
  </text>
</svg>
