<svg xmlns="http://www.w3.org/2000/svg" viewBox="0 0 80 90" fill="none">
  <!-- Shield Shape -->
  <path d="M40 4 L74 16 L74 48 C74 68 56 82 40 88 C24 82 6 68 6 48 L6 16 Z" 
        fill="none" 
        stroke="#D4AF37" 
        stroke-width="4"
        stroke-linejoin="round"/>
  
  <!-- Inner Shield Gradient Fill -->
  <path d="M40 10 L68 20 L68 47 C68 64 53 76 40 81 C27 76 12 64 12 47 L12 20 Z" 
        fill="#D4AF37" 
        opacity="0.15"/>
  
  <!-- Phantom/Ghost Figure -->
  <g transform="translate(40, 44)">
    <!-- Ghost Body -->
    <path d="M-16 -10 C-16 -22 -10 -28 0 -28 C10 -28 16 -22 16 -10 L16 16 
             L12 12 L12 18 L6 14 L6 20 L0 16 L-6 20 L-6 14 L-12 18 L-12 12 L-16 16 Z" 
          fill="#D4AF37"/>
    
    <!-- Eyes -->
    <ellipse cx="-6" cy="-12" rx="4" ry="5" fill="#0a0a0a"/>
    <ellipse cx="6" cy="-12" rx="4" ry="5" fill="#0a0a0a"/>
    
    <!-- Eye Inner (pupils) -->
    <ellipse cx="-6" cy="-11" rx="2" ry="2.5" fill="#D4AF37" opacity="0.3"/>
    <ellipse cx="6" cy="-11" rx="2" ry="2.5" fill="#D4AF37" opacity="0.3"/>
  </g>
</svg>
